<svg width="47" height="37" viewBox="0 0 47 37" fill="none" xmlns="http://www.w3.org/2000/svg">
<path d="M7.26063 32.2052C7.26063 31.8577 7.32579 31.5285 7.4561 31.2176C7.58871 30.9043 7.76818 30.6346 7.99451 30.4082C8.22314 30.1796 8.49863 29.999 8.82099 29.8664C9.14335 29.7315 9.48628 29.6641 9.84979 29.6641C10.2888 29.6641 10.6946 29.7647 11.0672 29.9658C11.4399 30.1647 11.7462 30.4357 11.9863 30.7786L11.3964 31.1798C11.2204 30.9215 10.9963 30.7169 10.7243 30.566C10.4545 30.4128 10.1664 30.3362 9.86008 30.3362C9.51943 30.3362 9.20736 30.4162 8.92387 30.5763C8.64038 30.7363 8.41632 30.9604 8.25171 31.2484C8.08711 31.5342 8.0048 31.8531 8.0048 32.2052C8.0048 32.5596 8.08711 32.8808 8.25171 33.1689C8.41861 33.4546 8.6438 33.6776 8.9273 33.8376C9.21079 33.9953 9.52172 34.0742 9.86008 34.0742C10.1779 34.0742 10.4739 33.9988 10.7483 33.8479C11.0226 33.697 11.2433 33.4912 11.4102 33.2306L12 33.6387C11.7668 33.9816 11.4639 34.2525 11.0912 34.4514C10.7209 34.6503 10.3128 34.7498 9.86694 34.7498C9.49886 34.7498 9.15249 34.6835 8.82785 34.5509C8.50549 34.4183 8.23 34.2388 8.00137 34.0125C7.77275 33.7861 7.59214 33.5164 7.45953 33.2032C7.32693 32.8899 7.26063 32.5573 7.26063 32.2052ZM12.7202 34.4412C12.4893 34.24 12.3738 33.9839 12.3738 33.673C12.3738 33.3621 12.4755 33.1163 12.679 32.9357C12.8848 32.7551 13.174 32.6522 13.5466 32.627L14.6646 32.5447V32.3115C14.6646 32.1058 14.5995 31.9457 14.4691 31.8314C14.3411 31.7148 14.1605 31.6565 13.9273 31.6565C13.5752 31.6565 13.254 31.772 12.9636 32.0029L12.6481 31.4885C13.0185 31.1753 13.4769 31.0187 14.0233 31.0187C14.428 31.0187 14.7515 31.1273 14.9938 31.3444C15.2385 31.5616 15.3608 31.8531 15.3608 32.2189V33.8342C15.3608 33.9713 15.4305 34.0399 15.57 34.0399H15.7517V34.6641H15.4019C15.2305 34.6641 15.0841 34.6252 14.963 34.5475C14.8418 34.4674 14.7583 34.3566 14.7126 34.2148C14.5915 34.3817 14.4337 34.512 14.2394 34.6058C14.0473 34.6972 13.8336 34.7429 13.5981 34.7429C13.246 34.7429 12.9534 34.6423 12.7202 34.4412ZM13.0562 33.6661C13.0562 33.8193 13.1191 33.945 13.2449 34.0433C13.3729 34.1394 13.5375 34.1874 13.7387 34.1874C13.9947 34.1874 14.2131 34.1085 14.3937 33.9508C14.5743 33.793 14.6646 33.6021 14.6646 33.3781V33.0831L13.6529 33.1689C13.4563 33.1826 13.3077 33.2317 13.2071 33.3163C13.1065 33.4009 13.0562 33.5175 13.0562 33.6661ZM16.9143 32.5207V34.6641H16.2044V31.0838H16.9143V31.461C17.1749 31.157 17.5121 31.0049 17.9259 31.0049C18.1911 31.0049 18.4255 31.0655 18.6289 31.1867C18.8347 31.3079 18.9913 31.4725 19.0988 31.6805C19.2177 31.4702 19.3788 31.3056 19.5823 31.1867C19.7881 31.0655 20.0178 31.0049 20.2716 31.0049C20.6626 31.0049 20.9826 31.1341 21.2318 31.3925C21.481 31.6508 21.6056 31.9709 21.6056 32.3527V34.6641H20.8957V32.5001C20.8957 32.2464 20.8214 32.0406 20.6728 31.8829C20.5265 31.7228 20.3345 31.6428 20.0967 31.6428C19.8498 31.6428 19.6486 31.724 19.4931 31.8863C19.3377 32.0486 19.2599 32.2601 19.2599 32.5207V34.6641H18.5501V32.5001C18.5501 32.2464 18.4758 32.0406 18.3272 31.8829C18.1808 31.7228 17.9888 31.6428 17.751 31.6428C17.5041 31.6428 17.3029 31.724 17.1475 31.8863C16.992 32.0486 16.9143 32.2601 16.9143 32.5207ZM22.655 30.5831C22.5338 30.5831 22.4321 30.542 22.3498 30.4597C22.2675 30.3774 22.2263 30.2756 22.2263 30.1545C22.2263 30.0379 22.2675 29.9384 22.3498 29.8561C22.4344 29.7738 22.5361 29.7326 22.655 29.7326C22.7716 29.7326 22.8699 29.7738 22.9499 29.8561C23.03 29.9384 23.07 30.0379 23.07 30.1545C23.07 30.2756 23.03 30.3774 22.9499 30.4597C22.8699 30.542 22.7716 30.5831 22.655 30.5831ZM23.0048 31.0838V34.6641H22.2949V31.0838H23.0048ZM25.0178 32.2052C25.0178 31.8577 25.083 31.5285 25.2133 31.2176C25.3459 30.9043 25.5254 30.6346 25.7517 30.4082C25.9803 30.1796 26.2558 29.999 26.5782 29.8664C26.9006 29.7315 27.2435 29.6641 27.607 29.6641C28.046 29.6641 28.4518 29.7647 28.8244 29.9658C29.1971 30.1647 29.5034 30.4357 29.7435 30.7786L29.1536 31.1798C28.9776 30.9215 28.7535 30.7169 28.4815 30.566C28.2117 30.4128 27.9236 30.3362 27.6173 30.3362C27.2766 30.3362 26.9646 30.4162 26.6811 30.5763C26.3976 30.7363 26.1735 30.9604 26.0089 31.2484C25.8443 31.5342 25.762 31.8531 25.762 32.2052C25.762 32.5596 25.8443 32.8808 26.0089 33.1689C26.1758 33.4546 26.401 33.6776 26.6845 33.8376C26.968 33.9953 27.2789 34.0742 27.6173 34.0742C27.9351 34.0742 28.2311 33.9988 28.5055 33.8479C28.7798 33.697 29.0005 33.4912 29.1674 33.2306L29.7572 33.6387C29.524 33.9816 29.2211 34.2525 28.8484 34.4514C28.4781 34.6503 28.07 34.7498 27.6241 34.7498C27.2561 34.7498 26.9097 34.6835 26.5851 34.5509C26.2627 34.4183 25.9872 34.2388 25.7586 34.0125C25.53 33.7861 25.3493 33.5164 25.2167 33.2032C25.0841 32.8899 25.0178 32.5573 25.0178 32.2052ZM30.4774 34.4412C30.2465 34.24 30.131 33.9839 30.131 33.673C30.131 33.3621 30.2327 33.1163 30.4362 32.9357C30.642 32.7551 30.9312 32.6522 31.3038 32.627L32.4218 32.5447V32.3115C32.4218 32.1058 32.3567 31.9457 32.2263 31.8314C32.0983 31.7148 31.9177 31.6565 31.6845 31.6565C31.3324 31.6565 31.0112 31.772 30.7209 32.0029L30.4054 31.4885C30.7757 31.1753 31.2341 31.0187 31.7805 31.0187C32.1852 31.0187 32.5087 31.1273 32.751 31.3444C32.9957 31.5616 33.118 31.8531 33.118 32.2189V33.8342C33.118 33.9713 33.1877 34.0399 33.3272 34.0399H33.5089V34.6641H33.1591C32.9877 34.6641 32.8413 34.6252 32.7202 34.5475C32.599 34.4674 32.5155 34.3566 32.4698 34.2148C32.3487 34.3817 32.1909 34.512 31.9966 34.6058C31.8045 34.6972 31.5908 34.7429 31.3553 34.7429C31.0032 34.7429 30.7106 34.6423 30.4774 34.4412ZM30.8134 33.6661C30.8134 33.8193 30.8763 33.945 31.0021 34.0433C31.1301 34.1394 31.2947 34.1874 31.4959 34.1874C31.7519 34.1874 31.9703 34.1085 32.1509 33.9508C32.3315 33.793 32.4218 33.6021 32.4218 33.3781V33.0831L31.4102 33.1689C31.2135 33.1826 31.0649 33.2317 30.9643 33.3163C30.8637 33.4009 30.8134 33.5175 30.8134 33.6661ZM35.7689 31.7148H35.4739C35.2385 31.7148 35.0453 31.7983 34.8944 31.9652C34.7458 32.1321 34.6715 32.3527 34.6715 32.627V34.6641H33.9616V31.0838H34.6646V31.5262C34.8567 31.2107 35.1424 31.053 35.522 31.053H35.7689V31.7148ZM39.8121 34.6641H39.1091V34.2148C38.9444 34.3817 38.7524 34.5132 38.5329 34.6092C38.3134 34.7029 38.0814 34.7498 37.8368 34.7498C37.5761 34.7498 37.3292 34.7006 37.096 34.6023C36.8628 34.504 36.6616 34.3714 36.4925 34.2045C36.3256 34.0376 36.193 33.8387 36.0947 33.6078C35.9963 33.3769 35.9472 33.1346 35.9472 32.8808C35.9472 32.6247 35.9963 32.3813 36.0947 32.1503C36.1952 31.9194 36.329 31.7205 36.4959 31.5536C36.6651 31.3845 36.8663 31.2507 37.0995 31.1524C37.3326 31.0541 37.5784 31.0049 37.8368 31.0049C38.0791 31.0049 38.31 31.0518 38.5295 31.1455C38.749 31.237 38.9399 31.3662 39.1022 31.5331V29.7464H39.8121V34.6641ZM39.1159 32.8808C39.1159 32.5333 38.9959 32.2395 38.7558 31.9995C38.5181 31.7571 38.2289 31.6359 37.8882 31.6359C37.5453 31.6359 37.2538 31.7571 37.0137 31.9995C36.776 32.2395 36.6571 32.5333 36.6571 32.8808C36.6571 33.226 36.7771 33.5198 37.0171 33.7621C37.2572 34.0022 37.5476 34.1222 37.8882 34.1222C38.2289 34.1222 38.5181 34.0022 38.7558 33.7621C38.9959 33.5198 39.1159 33.226 39.1159 32.8808Z" fill="#515151"/>
<path d="M46.4688 13.0254C46.4688 10.6465 45.8945 8.4668 44.7461 6.48633C43.5977 4.49414 41.998 2.91797 39.9473 1.75781C37.8848 0.585938 35.582 0 33.0391 0C30.8359 0 28.8027 0.486328 26.9395 1.45898C25.0762 2.43164 23.5 3.75586 22.2109 5.43164L25.9902 8.20898C26.7988 7.04883 27.8301 6.12891 29.084 5.44922C30.3262 4.76953 31.6211 4.42969 32.9688 4.42969C35.3945 4.42969 37.4336 5.23242 39.0859 6.83789C40.7266 8.44336 41.5469 10.5059 41.5469 13.0254C41.5469 14.7129 41.1602 16.2246 40.3867 17.5605C39.6133 18.8848 38.5762 19.9043 37.2754 20.6191C35.9746 21.3223 34.5391 21.6738 32.9688 21.6738C31.5156 21.6738 30.168 21.3457 28.9258 20.6895C27.6719 20.0215 26.6582 19.1016 25.8848 17.9297L22.1055 20.6895C23.3359 22.3652 24.8887 23.6953 26.7637 24.6797C28.627 25.6523 30.6836 26.1387 32.9336 26.1387C34.8789 26.1387 36.6953 25.7988 38.3828 25.1191C40.0703 24.4395 41.5059 23.5195 42.6895 22.3594C43.8613 21.1875 44.7871 19.7988 45.4668 18.1934C46.1348 16.5762 46.4688 14.8535 46.4688 13.0254Z" fill="url(#paint0_linear_232_112)"/>
<path d="M0 13.0254C0 10.6465 0.574219 8.4668 1.72266 6.48633C2.87109 4.49414 4.4707 2.91797 6.52148 1.75781C8.58398 0.585938 10.8867 0 13.4297 0C15.6328 0 17.666 0.486328 19.5293 1.45898C21.3926 2.43164 22.9688 3.75586 24.2578 5.43164L20.4785 8.20898C19.6699 7.04883 18.6387 6.12891 17.3848 5.44922C16.1426 4.76953 14.8477 4.42969 13.5 4.42969C11.0742 4.42969 9.03516 5.23242 7.38281 6.83789C5.74219 8.44336 4.92188 10.5059 4.92188 13.0254C4.92188 14.7129 5.30859 16.2246 6.08203 17.5605C6.85547 18.8848 7.89258 19.9043 9.19336 20.6191C10.4941 21.3223 11.9297 21.6738 13.5 21.6738C14.9531 21.6738 16.3008 21.3457 17.543 20.6895C18.7969 20.0215 19.8105 19.1016 20.584 17.9297L24.3633 20.6895C23.1328 22.3652 21.5801 23.6953 19.7051 24.6797C17.8418 25.6523 15.7852 26.1387 13.5352 26.1387C11.5898 26.1387 9.77344 25.7988 8.08594 25.1191C6.39844 24.4395 4.96289 23.5195 3.7793 22.3594C2.60742 21.1875 1.68164 19.7988 1.00195 18.1934C0.333984 16.5762 0 14.8535 0 13.0254Z" fill="url(#paint1_linear_232_112)"/>
<defs>
<linearGradient id="paint0_linear_232_112" x1="-9" y1="-5" x2="58" y2="31.5" gradientUnits="userSpaceOnUse">
<stop stop-color="#515151"/>
<stop offset="0.321689" stop-color="#B0B0B0"/>
<stop offset="0.506381" stop-color="#5B5B5B"/>
<stop offset="0.669726" stop-color="#C3C3C3"/>
<stop offset="1" stop-color="#585858"/>
</linearGradient>
<linearGradient id="paint1_linear_232_112" x1="-9" y1="-5" x2="58" y2="31.5" gradientUnits="userSpaceOnUse">
<stop stop-color="#515151"/>
<stop offset="0.321689" stop-color="#B0B0B0"/>
<stop offset="0.506381" stop-color="#5B5B5B"/>
<stop offset="0.669726" stop-color="#C3C3C3"/>
<stop offset="1" stop-color="#585858"/>
</linearGradient>
</defs>
</svg>
