<svg width="1080" height="1080" viewBox="0 0 1080 1080" fill="none" xmlns="http://www.w3.org/2000/svg">
<rect width="1080" height="1080" rx="233" fill="black"/>
<path d="M166 540.019C166 518.695 171.147 499.156 181.442 481.403C191.736 463.546 206.075 449.417 224.458 439.017C242.946 428.513 263.588 423.261 286.383 423.261C306.131 423.261 324.357 427.62 341.059 436.339C357.761 445.058 371.89 456.928 383.445 471.949L349.568 496.845C342.32 486.446 333.075 478.2 321.836 472.107C310.701 466.014 299.093 462.968 287.013 462.968C265.268 462.968 246.99 470.164 232.179 484.555C217.472 498.946 210.119 517.434 210.119 540.019C210.119 555.146 213.586 568.697 220.519 580.672C227.452 592.542 236.748 601.681 248.408 608.089C260.069 614.392 272.937 617.543 287.013 617.543C300.039 617.543 312.119 614.602 323.254 608.719C334.494 602.731 343.58 594.485 350.513 583.981L384.39 608.719C373.361 623.741 359.442 635.663 342.635 644.487C325.932 653.206 307.497 657.565 287.328 657.565C269.89 657.565 253.608 654.519 238.482 648.426C223.355 642.334 210.487 634.088 199.877 623.688C189.373 613.184 181.074 600.736 174.981 586.344C168.994 571.848 166 556.406 166 540.019Z" fill="white"/>
<path d="M398.099 606.513C398.099 591.702 402.931 580.042 412.595 571.533C422.259 563.024 436.02 558.139 453.878 556.879L503.04 553.255V546.795C503.04 538.496 500.361 532.036 495.004 527.414C489.646 522.686 482.083 520.323 472.314 520.323C457.607 520.323 442.901 525.26 428.195 535.134L410.389 505.196C430.663 490.385 453.038 482.979 477.514 482.979C497.577 482.979 513.649 488.336 525.73 499.051C537.915 509.661 544.008 523.842 544.008 541.595V607.143C544.008 613.656 547.106 616.913 553.304 616.913H561.97V653.311H542.432C534.448 653.311 527.463 651.578 521.475 648.111C515.488 644.645 511.023 639.813 508.082 633.615C502.094 641.178 494.636 647.061 485.707 651.263C476.778 655.464 466.851 657.565 455.927 657.565C439.329 657.565 425.516 652.733 414.486 643.069C403.561 633.405 398.099 621.22 398.099 606.513ZM438.436 606.198C438.436 611.975 440.905 616.597 445.842 620.064C450.779 623.531 457.24 625.264 465.223 625.264C475.728 625.264 484.657 622.322 492.01 616.44C499.363 610.452 503.04 603.257 503.04 594.853V584.296L459.708 588.078C445.527 589.338 438.436 595.378 438.436 606.198Z" fill="white"/>
<path d="M623.265 554.515V653.311H581.351V486.446H623.265V499.997C635.24 488.021 650.209 482.034 668.172 482.034C680.252 482.034 691.019 484.66 700.474 489.912C710.033 495.059 717.543 502.203 723.006 511.342C728.678 502.097 736.189 494.902 745.538 489.755C754.992 484.607 765.339 482.034 776.579 482.034C795.382 482.034 810.667 488.126 822.432 500.312C834.302 512.497 840.237 527.676 840.237 545.849V653.311H798.166V554.515C798.166 544.221 795.067 535.87 788.87 529.462C782.777 522.949 774.793 519.693 764.919 519.693C755.15 519.693 747.166 522.897 740.969 529.304C734.876 535.607 731.83 544.011 731.83 554.515V653.311H689.759V554.515C689.759 544.221 686.66 535.87 680.462 529.462C674.37 522.949 666.386 519.693 656.512 519.693C646.637 519.693 638.601 522.844 632.404 529.147C626.311 535.45 623.265 543.906 623.265 554.515Z" fill="white"/>
<path d="M907.204 462.022C902.792 466.539 897.277 468.798 890.659 468.798C884.041 468.798 878.421 466.539 873.799 462.022C869.177 457.4 866.866 451.781 866.866 445.163C866.866 438.545 869.177 433.03 873.799 428.618C878.421 424.206 884.041 422 890.659 422C897.277 422 902.792 424.206 907.204 428.618C911.721 433.03 913.979 438.545 913.979 445.163C913.979 451.781 911.721 457.4 907.204 462.022ZM911.616 486.446V653.311H869.387V486.446H911.616Z" fill="white"/>
</svg>
